HIERARCHY
ROOT Hips
{
	OFFSET 0.000000 0.000000 0.000000 
	CHANNELS 6 Xposition Yposition Zposition Zrotation Yrotation Xrotation
	JOINT LeftUpLeg
	{
		OFFSET 1.363060 -1.794630 0.839290 
		CHANNELS 3 Zrotation Yrotation Xrotation
		JOINT LeftLeg
		{
			OFFSET 2.448110 -6.726130 0.000000 
			CHANNELS 3 Zrotation Yrotation Xrotation
			JOINT LeftFoot
			{
				OFFSET 2.562200 -7.039590 0.000000 
				CHANNELS 3 Zrotation Yrotation Xrotation
				JOINT LeftToeBase
				{
					OFFSET 0.157640 -0.433110 2.322550 
					CHANNELS 3 Zrotation Yrotation Xrotation
					End Site
					{
						OFFSET 0.000000 0.000000 0.000000 
					}
				}
			}
		}
	}
	JOINT RightUpLeg
	{
		OFFSET -1.305520 -1.794630 0.839290 
		CHANNELS 3 Zrotation Yrotation Xrotation
		JOINT RightLeg
		{
			OFFSET -2.542530 -6.985550 0.000000 
			CHANNELS 3 Zrotation Yrotation Xrotation
			JOINT RightFoot
			{
				OFFSET -2.568260 -7.056230 0.000000 
				CHANNELS 3 Zrotation Yrotation Xrotation
				JOINT RightToeBase
				{
					OFFSET -0.164730 -0.452590 2.363150 
					CHANNELS 3 Zrotation Yrotation Xrotation
					End Site
					{
						OFFSET 0.000000 0.000000 0.000000 
					}
				}
			}
		}
	}
	JOINT Spine
	{
		OFFSET 0.028270 2.035590 -0.193380 
		CHANNELS 3 Zrotation Yrotation Xrotation
		JOINT Spine1
		{
			OFFSET 0.056720 2.048850 -0.042750 
			CHANNELS 3 Zrotation Yrotation Xrotation
			JOINT Neck1
			{
				OFFSET -0.054170 1.746240 0.172020 
				CHANNELS 3 Zrotation Yrotation Xrotation
				JOINT Head
				{
					OFFSET 0.104070 1.761360 -0.123970 
					CHANNELS 3 Zrotation Yrotation Xrotation
					End Site
					{
						OFFSET 0.000000 0.000000 0.000000 
					}
				}
			}
			JOINT LeftArm
			{
				OFFSET 3.362410 1.200890 -0.311210 
				CHANNELS 3 Zrotation Yrotation Xrotation
				JOINT LeftForeArm
				{
					OFFSET 4.983000 -0.000000 -0.000000 
					CHANNELS 3 Zrotation Yrotation Xrotation
					JOINT LeftHand
					{
						OFFSET 3.483560 -0.000000 -0.000000 
						CHANNELS 3 Zrotation Yrotation Xrotation
						JOINT LeftHandIndex1
						{
							OFFSET 0.715260 -0.000000 -0.000000 
							CHANNELS 3 Zrotation Yrotation Xrotation
							End Site
							{
								OFFSET 0.000000 0.000000 0.000000 
							}
						}
					}
				}
			}
			JOINT RightArm
			{
				OFFSET -3.136600 1.374050 -0.404650 
				CHANNELS 3 Zrotation Yrotation Xrotation
				JOINT RightForeArm
				{
					OFFSET -5.241900 -0.000000 -0.000000 
					CHANNELS 3 Zrotation Yrotation Xrotation
					JOINT RightHand
					{
						OFFSET -3.444170 -0.000000 -0.000000 
						CHANNELS 3 Zrotation Yrotation Xrotation
						JOINT RightHandIndex1
						{
							OFFSET -0.622530 -0.000000 -0.000000 
							CHANNELS 3 Zrotation Yrotation Xrotation
							End Site
							{
								OFFSET 0.000000 0.000000 0.000000 
							}
						}
					}
				}
			}
		}
	}
}
MOTION
Frames: 17
Frame Time: 0.041667
42.946582 17.761539 5.394102 -116.214038 -82.533758 128.819081 -5.575401 -5.630902 -7.087317 -0.475104 4.067968 9.876360 -1.772381 10.047226 -2.525254 0.124100 -2.271300 -6.256000 28.228425 7.945535 -9.191765 -0.165585 -6.012796 15.275600 1.655907 -10.983945 -5.565601 -0.480300 -4.444200 12.329800 1.787800 -4.185855 -5.803626 5.308832 -2.369867 -0.990606 7.510584 -11.480701 7.045920 3.690100 -5.655700 7.608700 -95.957792 4.430864 4.225602 10.512099 -28.748477 -3.158424 1.939253 2.478552 27.548444 -7.125000 0.000000 0.000000 85.067830 2.224820 19.523973 -10.328988 22.315257 -2.152819 -0.521181 0.494065 13.488241 7.125000 0.000000 0.000000 
42.936280 17.760939 5.385900 -116.235084 -82.529494 128.854478 -5.553984 -5.630405 -7.116154 -0.468809 4.100813 9.970204 -1.767814 10.022527 -2.587721 0.127700 -2.303300 -6.344700 28.253507 7.829539 -9.207818 -0.164349 -6.004930 15.257782 1.630324 -10.857384 -5.531785 -0.474400 -4.417100 12.253100 1.794869 -4.194928 -5.831458 5.330066 -2.376267 -1.080486 7.606093 -11.443333 7.132432 3.741400 -5.634900 7.647600 -95.959028 4.552954 4.244789 10.555435 -28.797711 -3.171509 1.938464 2.488803 27.514549 -7.125000 0.000000 0.000000 85.066896 2.109745 19.582497 -10.340929 22.333327 -2.160938 -0.519171 0.494704 13.447229 7.125000 0.000000 0.000000 
42.925679 17.759939 5.374999 -116.932742 -82.469489 129.589288 -5.509332 -5.610357 -7.160745 -0.459892 4.146953 10.095703 -1.776163 10.048950 -2.731732 0.127300 -2.299800 -6.334800 28.290972 7.866799 -9.202943 -0.166294 -6.010742 15.277554 1.607403 -10.744771 -5.516175 -0.476100 -4.425100 12.275900 1.756614 -4.034433 -5.806094 5.265641 -2.294382 -1.034299 7.375260 -11.645124 7.183583 3.564900 -5.723400 7.745800 -95.813601 4.293870 4.408681 10.494611 -28.707755 -3.146017 1.924605 2.467673 27.603830 -7.125000 0.000000 0.000000 85.233588 2.312158 19.260991 -10.261717 22.196281 -2.128223 -0.518385 0.495428 13.558931 7.125000 0.000000 0.000000 
42.914277 17.758139 5.364397 -117.113612 -82.397164 129.800425 -5.410255 -5.597292 -7.223369 -0.449508 4.194324 10.228677 -1.782040 10.064951 -2.813708 0.129800 -2.322600 -6.398000 28.377692 7.810506 -9.211016 -0.165837 -6.006925 15.269860 1.578425 -10.602345 -5.490690 -0.482200 -4.453000 12.354800 1.767638 -4.002082 -5.801439 5.326127 -2.280863 -1.003517 7.924113 -11.544298 7.453272 3.812100 -5.632800 7.953200 -95.820451 4.248279 4.370423 10.478854 -28.685552 -3.140785 1.923128 2.459042 27.650571 -7.125000 0.000000 0.000000 85.255898 2.256546 19.331338 -10.351649 22.342293 -2.169060 -0.517549 0.493831 13.464698 7.125000 0.000000 0.000000 
42.903175 17.756439 5.355096 -117.490119 -82.405562 130.206894 -5.433329 -5.621595 -7.248664 -0.442036 4.240206 10.355632 -1.777931 10.041523 -2.961214 0.126000 -2.288200 -6.302700 28.364231 7.727579 -9.219539 -0.165524 -6.003269 15.265749 1.547032 -10.446059 -5.487586 -0.492200 -4.498400 12.483300 1.764671 -3.979722 -5.800054 5.358135 -2.267803 -0.978036 8.020785 -11.550941 7.387933 3.863300 -5.634300 7.918300 -95.813935 4.182604 4.319167 10.415188 -28.610193 -3.123489 1.934555 2.443205 27.712310 -7.125000 0.000000 0.000000 85.269658 2.211535 19.383956 -10.345499 22.336976 -2.171928 -0.514900 0.494994 13.401335 7.125000 0.000000 0.000000 
42.891673 17.753038 5.343494 -117.245328 -82.249586 129.973953 -5.214160 -5.589978 -7.261213 -0.430487 4.280755 10.473270 -1.774905 10.018524 -3.064987 0.118900 -2.222800 -6.121800 28.607563 7.837471 -9.147894 -0.170168 -6.024210 15.319496 1.540121 -10.419264 -5.581103 -0.497700 -4.522900 12.552600 1.765030 -3.922315 -5.730929 5.292034 -2.239747 -0.775836 8.262712 -11.627235 7.133738 3.959500 -5.649900 7.864200 -95.753628 3.905899 4.348941 10.364058 -28.550225 -3.111445 1.948940 2.435029 27.771091 -7.125000 0.000000 0.000000 85.337093 2.342311 19.428736 -10.363891 22.376818 -2.185040 -0.514051 0.493574 13.292822 7.125000 0.000000 0.000000 
42.882072 17.752238 5.333293 -117.758796 -82.293312 130.512815 -5.278331 -5.589302 -7.388376 -0.414545 4.372860 10.729562 -1.763703 9.964710 -3.216197 0.127100 -2.298200 -6.330600 28.551892 7.826147 -9.159255 -0.172522 -6.030262 15.343662 1.524065 -10.336772 -5.590296 -0.497700 -4.522800 12.552400 1.797526 -4.007230 -5.761553 5.431403 -2.278951 -0.840096 8.307128 -11.512040 7.009659 4.032900 -5.612400 7.736500 -95.891799 4.162084 4.146703 10.436565 -28.648720 -3.136318 1.943547 2.444029 27.749203 -7.125000 0.000000 0.000000 84.985286 1.778509 20.410987 -10.609011 22.783172 -2.282110 -0.519968 0.487184 12.573473 7.125000 0.000000 0.000000 
42.869370 17.748837 5.322991 -117.881284 -82.283577 130.664455 -5.242597 -5.562136 -7.473523 -0.401439 4.438470 10.914561 -1.749704 9.899870 -3.346237 0.125100 -2.280000 -6.280100 28.589464 7.814884 -9.151761 -0.173768 -6.034533 15.358968 1.504585 -10.242001 -5.654217 -0.509700 -4.576100 12.703400 1.808879 -4.064248 -5.753076 5.446031 -2.307697 -0.791089 8.482317 -11.420689 6.992250 4.140300 -5.562700 7.734000 -95.906155 4.155121 3.969102 10.439613 -28.644616 -3.139072 1.942739 2.445234 27.748307 -7.125000 0.000000 0.000000 85.017369 1.810219 20.565229 -10.563751 22.713992 -2.261286 -0.521450 0.487259 12.581494 7.125000 0.000000 0.000000 
42.859069 17.745737 5.311589 -118.021164 -82.212592 130.847961 -5.158908 -5.551748 -7.578038 -0.384018 4.523518 11.146989 -1.750061 9.894665 -3.501040 0.064700 -1.641400 -4.515600 28.694063 7.858457 -9.149604 -0.178673 -6.055548 15.415286 1.492841 -10.188051 -5.697274 -0.503200 -4.547300 12.621900 1.727088 -3.851491 -5.635459 5.192754 -2.202791 -0.417981 8.434157 -11.740645 7.029569 3.990200 -5.674900 7.890900 -95.602305 3.560605 4.262852 10.344688 -28.509178 -3.106471 1.943525 2.426857 27.856305 -7.125000 0.000000 0.000000 85.376757 2.219750 20.111478 -10.534976 22.670426 -2.245425 -0.526957 0.483551 12.655433 7.125000 0.000000 0.000000 
42.848167 17.742636 5.301388 -117.934488 -82.196285 130.752830 -5.113453 -5.569846 -7.724655 -0.357480 4.647041 11.499282 -1.744022 9.858626 -3.674452 0.112800 -2.165000 -5.961900 28.751430 7.861011 -9.110529 -0.179008 -6.053157 15.414904 1.482529 -10.136458 -5.728111 -0.510200 -4.578500 12.710100 1.734471 -3.737476 -5.712604 5.300912 -2.145845 -0.764220 8.315748 -11.778051 7.141915 3.910700 -5.694900 7.966000 -95.607628 3.693332 4.374275 10.348556 -28.516813 -3.109863 1.956072 2.446665 27.879107 -7.125000 0.000000 0.000000 85.339392 1.962351 20.033006 -10.557710 22.679979 -2.232278 -0.535745 0.481416 12.651371 7.125000 0.000000 0.000000 
42.838766 17.739336 5.289286 -117.921306 -82.164326 130.738559 -5.028767 -5.566690 -7.867197 -0.334461 4.744994 11.783906 -1.735789 9.813237 -3.813965 0.074100 -1.756000 -4.831900 28.827126 7.863114 -9.102669 -0.181056 -6.056319 15.431199 1.472051 -10.083851 -5.762330 -0.503500 -4.548900 12.626200 1.810469 -3.838117 -5.829867 5.554139 -2.193700 -1.179259 8.287579 -11.590937 7.081982 3.974500 -5.638700 7.833900 -95.804091 4.197782 4.173779 10.443868 -28.645440 -3.145134 1.969954 2.462505 27.785378 -7.125000 0.000000 0.000000 85.114119 1.514260 20.385889 -10.559357 22.678362 -2.252477 -0.521728 0.488393 12.609203 7.125000 0.000000 0.000000 
42.828864 17.735735 5.277984 -117.854437 -82.102145 130.770515 -4.949909 -5.605814 -8.033192 -0.307098 4.886990 12.156067 -1.728324 9.783757 -4.029278 0.127500 -2.301600 -6.340100 28.926270 7.829503 -9.124098 -0.182575 -6.075092 15.465515 1.448240 -9.975754 -5.799581 -0.515700 -4.602600 12.778400 1.645463 -3.962609 -5.378670 4.642618 -2.258861 0.584539 8.764175 -11.642452 6.531496 4.133500 -5.594400 7.645400 -95.181611 2.860371 4.019684 10.278985 -28.384876 -3.096111 1.975351 2.423975 27.742986 -7.125000 0.000000 0.000000 85.968473 2.787637 20.278640 -10.400530 22.514551 -2.203750 -0.528965 0.484122 12.984704 7.125000 0.000000 0.000000 
42.816962 17.730735 5.266483 -117.924433 -82.011816 130.837646 -4.832137 -5.550749 -8.203213 -0.273954 5.018032 12.535807 -1.717127 9.726462 -4.223242 0.081800 -1.844600 -5.076300 29.075386 7.871311 -9.079171 -0.184975 -6.079370 15.483526 1.436954 -9.920233 -5.824312 -0.505700 -4.558500 12.653400 1.736042 -4.155706 -5.489331 4.852979 -2.358292 0.231477 8.809760 -11.319030 6.379221 4.280500 -5.480800 7.418800 -95.442244 3.494954 3.573112 10.412652 -28.546399 -3.140035 1.969539 2.436372 27.664640 -7.125000 0.000000 0.000000 85.775225 2.399005 20.718297 -10.318928 22.382240 -2.173361 -0.524469 0.488765 13.148909 7.125000 0.000000 0.000000 
42.807861 17.727434 5.254281 -117.792179 -81.952089 130.711865 -4.722159 -5.566165 -8.432712 -0.233975 5.179207 12.993864 -1.716826 9.716050 -4.376399 0.091100 -1.946800 -5.358800 29.191180 7.889990 -9.051309 -0.184926 -6.077146 15.480284 1.431692 -9.895995 -5.867319 -0.510300 -4.579100 12.712000 1.733153 -3.992515 -5.514666 4.921970 -2.276353 0.044260 8.641782 -11.478700 6.527719 4.134800 -5.544100 7.590200 -95.417716 3.394389 3.792027 10.430369 -28.567926 -3.141424 1.959165 2.438334 27.697653 -7.125000 0.000000 0.000000 85.945889 2.578505 20.142205 -10.224610 22.202178 -2.134637 -0.521433 0.490122 13.554417 7.125000 0.000000 0.000000 
42.797259 17.723234 5.243279 -117.649828 -81.876177 130.526544 -4.605697 -5.557350 -8.628974 -0.191015 5.337916 13.459848 -1.699580 9.633520 -4.574015 0.099100 -2.030500 -5.590100 29.322647 7.902627 -9.020745 -0.190795 -6.090022 15.529984 1.416468 -9.818308 -5.915483 -0.518800 -4.616600 12.818100 1.762903 -3.943621 -5.747303 5.023490 -2.266373 -0.923164 8.561129 -11.407030 6.818070 4.117400 -5.527600 7.717200 -95.453928 4.137709 3.873551 10.617904 -28.749413 -3.188228 1.940883 2.461805 27.516528 -7.125000 0.000000 0.000000 85.788126 1.830244 20.428909 -10.281898 22.256140 -2.151548 -0.516984 0.492322 13.452924 7.125000 0.000000 0.000000 
42.787058 17.719733 5.232378 -117.623680 -81.818976 130.511464 -4.520684 -5.568618 -8.866528 -0.140649 5.535020 14.013751 -1.684371 9.568958 -4.798136 0.102700 -2.066300 -5.688900 29.432124 7.909888 -9.023706 -0.199780 -6.125871 15.628570 1.400106 -9.742054 -5.988847 -0.514600 -4.598100 12.765700 1.777806 -3.888513 -5.602128 5.091023 -2.226908 -0.396746 8.598374 -11.460716 6.602579 4.113100 -5.540000 7.649000 -95.467359 3.639546 3.962070 10.519713 -28.679199 -3.166927 1.954169 2.457767 27.604056 -7.125000 0.000000 0.000000 85.552403 1.843793 20.908112 -10.442434 22.541038 -2.213011 -0.525082 0.487008 12.872465 7.125000 0.000000 0.000000 
42.775456 17.714832 5.221776 -117.614104 -81.772597 130.514466 -4.455073 -5.562560 -9.073699 -0.098744 5.691250 14.457296 -1.666195 9.492644 -4.959770 0.106600 -2.105100 -5.796300 29.517689 7.874973 -9.030765 -0.204053 -6.140849 15.673362 1.379461 -9.642178 -6.040158 -0.514300 -4.596600 12.761400 1.738059 -3.781295 -5.565563 4.944848 -2.175411 -0.335863 8.458527 -11.536586 6.617695 3.982800 -5.557900 7.732100 -95.310107 3.429363 4.127674 10.531555 -28.663081 -3.160999 1.941302 2.415689 27.600381 -7.125000 0.000000 0.000000 85.810349 2.077558 20.494154 -10.351613 22.386906 -2.174410 -0.525689 0.486974 13.130852 7.125000 0.000000 0.000000 
